#!OML:ASF I:\salsa\salsa 7_09\Patient 1\Session 1\dancermale.ASF
:FULLY-SPECIFIED
:DEGREES
1287
root 5.99681 17.1211 7.82813 189.617 -39.9827 176.005
lowerback -1.98254 -0.678478 1.75584
upperback 0.465139 -0.978103 -4.01859
thorax 1.49247 -0.493016 -5.1714
lowerneck -7.96653 8.10986 5.26416
upperneck 26.2904 9.7416 -1.67542
head 10.0106 4.39889 -0.465517
rclavicle 1.18277e-014 3.49861e-014
rhumerus -1.08624 27.4907 -97.7504
rradius 61.4449
rwrist 47.063
rhand 18.0208 9.80186
rfingers 7.12502
rthumb 42.6871 -14.5537
lclavicle 1.18277e-014 3.49861e-014
lhumerus -9.76837 -32.6449 108.261
lradius 65.0267
lwrist 55.524
lhand -12.8907 46.8915
lfingers 7.12502
lthumb 13.1985 -283.546
rfemur -36.4343 -4.07203 18.5693
rtibia 68.5437
rfoot -11.8257 -13.6898
rtoes 17.2786
lfemur -17.5127 -1.8709 -21.8336
ltibia 29.8033
lfoot -22.8877 6.4273
ltoes -18.1939
1288
root 6.09207 17.0945 7.86508 190.091 -40.9977 175.689
lowerback -2.26136 -0.417963 1.42722
upperback 0.47112 -0.62561 -4.18147
thorax 1.69309 -0.31876 -5.14833
lowerneck -8.65135 7.86131 4.94959
upperneck 26.8412 9.28239 -1.10341
head 10.2758 4.20612 -0.236441
rclavicle 3.77691e-014 -1.27222e-014
rhumerus -0.488726 26.3959 -98.5241
rradius 60.5741
rwrist 48.3163
rhand 12.6019 8.33061
rfingers 7.12502
rthumb 37.5897 -17.5791
lclavicle 3.77691e-014 -1.27222e-014
lhumerus -9.04457 -31.9414 107.504
lradius 64.5831
lwrist 55.7759
lhand -13.0903 46.3652
lfingers 7.12502
lthumb 13.0062 -284.06
rfemur -36.0659 -4.49923 18.5044
rtibia 71.7729
rfoot -9.8781 -11.8692
rtoes 20.3921
lfemur -18.6354 -2.37165 -21.8058
ltibia 30.5426
lfoot -22.8691 5.78402
ltoes -18.4553
1289
root 6.19739 17.0745 7.87944 190.139 -41.3506 175.591
lowerback -2.27684 0.0312996 0.900221
upperback 0.486215 -0.0124546 -4.21006
thorax 1.778 -0.0170019 -4.85567
lowerneck -8.76061 7.5856 4.69096
upperneck 26.8053 8.89549 -0.857367
head 10.242 4.03843 -0.151477
rclavicle -2.64384e-014 -4.37326e-014
rhumerus -0.674841 25.2164 -99.6755
rradius 60.6323
rwrist 49.4263
rhand 9.01435 6.5836
rfingers 7.12502
rthumb 34.1909 -20.1576
lclavicle -2.64384e-014 -4.37326e-014
lhumerus -8.36708 -30.9491 106.782
lradius 64.0038
lwrist 55.3308
lhand -12.882 46.1119
lfingers 7.12502
lthumb 13.2069 -284.326
rfemur -35.8215 -2.12189 18.5623
rtibia 74.7632
rfoot -7.93132 -11.0913
rtoes 25.0967
lfemur -19.1333 -2.27414 -21.5839
ltibia 30.9194
lfoot -22.8414 5.06969
ltoes -18.4341
1290
root 6.28626 17.0548 7.9148 190.836 -42.8135 175.135
lowerback -2.57677 0.199619 0.742141
upperback 0.373243 0.213963 -4.36157
thorax 1.85098 0.092096 -4.91614
lowerneck -8.69077 7.23961 4.58939
upperneck 26.5989 8.44566 -0.814679
head 10.1305 3.84062 -0.178518
rclavicle 3.39922e-014 -5.24792e-014
rhumerus -1.01692 23.5476 -100.999
rradius 60.5334
rwrist 50.7535
rhand 5.7197 5.71243
rfingers 7.12502
rthumb 31.0562 -21.6783
lclavicle 3.39922e-014 -5.24792e-014
lhumerus -7.90515 -30.0876 106.173
lradius 63.4222
lwrist 54.9021
lhand -12.3756 46.0095
lfingers 7.12502
lthumb 13.695 -284.461
rfemur -35.6635 -0.894366 18.31
rtibia 76.2444
rfoot -6.04659 -11.2363
rtoes 26.7611
lfemur -20.3854 -3.27953 -21.6515
ltibia 31.6511
lfoot -22.6688 4.27813
ltoes -18.0384
1291
root 6.38789 17.0378 7.92596 191.217 -43.8263 174.853
lowerback -2.75527 0.60147 0.360649
upperback 0.340468 0.762576 -4.4447
thorax 1.96337 0.362024 -4.76169
lowerneck -8.8678 6.80953 4.48153
upperneck 26.671 7.81437 -0.596889
head 10.1558 3.56906 -0.15214
rclavicle -3.37934e-014 4.37326e-014
rhumerus -1.26754 22.1606 -102.023
rradius 60.7174
rwrist 51.9973
rhand 3.0053 4.81197
rfingers 7.12502
rthumb 28.4656 -23.0424
lclavicle -3.37934e-014 4.37326e-014
lhumerus -7.55656 -29.4573 105.531
lradius 63.1758
lwrist 54.9132
lhand -11.607 46.1314
lfingers 7.12502
lthumb 14.4357 -284.391
rfemur -34.0327 -0.481122 18.111
rtibia 76.9353
rfoot -4.67334 -11.0863
rtoes 30.7627
lfemur -21.1331 -3.86407 -21.5053
ltibia 31.9784
lfoot -22.3634 3.95917
ltoes -18.3182
1292
root 6.49341 17.0217 7.92596 191.495 -45.0082 174.684
lowerback -2.94395 0.960405 -0.062533
upperback 0.362018 1.26254 -4.40606
thorax 2.12391 0.609328 -4.45502
lowerneck -9.06691 6.36121 4.09362
upperneck 26.667 7.15208 -0.126867
head 10.1353 3.28777 0.00452657
rclavicle -3.93594e-014 1.27222e-014
rhumerus -1.53239 21.8123 -102.498
rradius 61.4769
rwrist 52.6524
rhand 1.10633 3.63214
rfingers 7.12502
rthumb 26.6496 -24.512
lclavicle -3.93594e-014 1.27222e-014
lhumerus -7.20966 -28.9792 104.807
lradius 63.2534
lwrist 55.052
lhand -10.7938 46.0301
lfingers 7.12502
lthumb 15.2191 -284.55
rfemur -31.8615 -0.0636858 18.0945
rtibia 76.6281
rfoot -5.01321 -11.2765
rtoes 29.0154
lfemur -21.8046 -4.47791 -21.1898
ltibia 32.1506
lfoot -22.1341 3.76057
ltoes -19.9179
1293
root 6.59953 17.0108 7.91442 191.755 -46.2959 174.552
lowerback -3.13685 1.27214 -0.54625
upperback 0.339303 1.70319 -4.27607
thorax 2.22424 0.825136 -4.01943
lowerneck -9.03678 5.80593 3.52186
upperneck 26.5293 6.35917 0.426361
head 10.015 2.93807 0.196856
rclavicle 4.22417e-014 3.18055e-015
rhumerus -2.63997 19.7734 -104.291
rradius 61.6245
rwrist 55.2279
rhand -0.679063 3.43406
rfingers 7.12502
rthumb 24.9398 -24.9585
lclavicle 4.22417e-014 3.18055e-015
lhumerus -7.00836 -28.5695 104.149
lradius 63.5624
lwrist 55.2535
lhand -10.4292 45.6871
lfingers 7.12502
lthumb 15.5703 -284.92
rfemur -29.2933 0.0605981 17.973
rtibia 74.726
rfoot -4.36647 -11.5719
rtoes 28.5992
lfemur -22.4101 -5.17332 -20.7728
ltibia 32.1501
lfoot -21.8864 3.12711
ltoes -20.2468
1294
root 6.69986 17.0053 7.89641 191.68 -47.6317 174.601
lowerback -3.16934 1.6013 -0.80228
upperback 0.351871 2.15849 -4.12868
thorax 2.27015 1.05189 -3.69594
lowerneck -9.04332 5.20566 3.01326
upperneck 26.6065 5.48349 0.933826
head 9.99341 2.54262 0.358931
rclavicle -1.42628e-013 5.64548e-014
rhumerus -2.80597 19.4859 -105.218
rradius 62.0097
rwrist 55.4838
rhand -1.66075 2.54768
rfingers 7.12502
rthumb 23.9987 -25.9721
lclavicle -1.42628e-013 5.64548e-014
lhumerus -6.92886 -28.2071 103.496
lradius 64.1071
lwrist 55.2083
lhand -9.90931 45.699
lfingers 7.12502
lthumb 16.071 -284.947
rfemur -26.4446 1.93767 18.4248
rtibia 72.9012
rfoot -4.40586 -13.1093
rtoes 28.1753
lfemur -22.6533 -6.09869 -20.2278
ltibia 31.9649
lfoot -21.5134 2.53179
ltoes -19.7125
1295
root 6.80502 17.0056 7.87865 192.392 -48.9225 173.975
lowerback -3.36112 1.96113 -1.45087
upperback 0.25643 2.66285 -4.15096
thorax 2.28052 1.2928 -3.32216
lowerneck -9.24707 4.59875 2.57407
upperneck 26.9234 4.53513 1.55098
head 10.1069 2.12843 0.549283
rclavicle -2.0276e-014 -7.95139e-016
rhumerus -3.25088 19.4858 -106.21
rradius 62.5602
rwrist 55.6216
rhand -3.61006 1.63309
rfingers 7.12502
rthumb 22.1284 -27.1206
lclavicle -2.0276e-014 -7.95139e-016
lhumerus -6.86598 -28.0436 102.749
lradius 64.7249
lwrist 54.8523
lhand -8.87133 45.7457
lfingers 7.12502
lthumb 17.0703 -284.984
rfemur -23.8659 2.79656 18.1972
rtibia 69.9792
rfoot -2.65338 -13.7241
rtoes 32.0295
lfemur -23.2258 -7.23408 -20.2463
ltibia 31.9054
lfoot -21.1503 2.34227
ltoes -20.6244
1296
root 6.92617 16.9933 7.85922 193.437 -50.491 173.571
lowerback -3.80323 2.30326 -1.93036
upperback -0.0449154 3.14135 -4.14441
thorax 2.21481 1.52321 -3.00863
lowerneck -9.32917 3.92231 2.17094
upperneck 26.993 3.49132 2.20195
head 10.1193 1.68476 0.730281
rclavicle -3.1408e-014 -3.10104e-014
rhumerus -3.26998 19.0066 -107.353
rradius 62.8711
rwrist 56.0513
rhand -3.3249 1.58346
rfingers 7.12502
rthumb 22.4021 -27.1375
lclavicle -3.1408e-014 -3.10104e-014
lhumerus -6.87409 -28.2168 101.989
lradius 65.4651
lwrist 54.9668
lhand -8.84358 45.5161
lfingers 7.12502
lthumb 17.097 -285.216
rfemur -21.5015 2.67729 18.177
rtibia 65.6764
rfoot -3.19877 -12.6227
rtoes 30.3866
lfemur -24.6221 -8.43601 -19.8721
ltibia 32.2759
lfoot -20.8668 1.91664
ltoes -21.2243
1297
root 7.04578 16.9789 7.81664 193.742 -52.3999 173.808
lowerback -4.12373 2.63366 -2.03611
upperback -0.277771 3.59421 -3.99271
thorax 2.15602 1.74974 -2.7567
lowerneck -9.26795 3.09959 1.77677
upperneck 27.0282 2.2336 2.85488
head 10.1063 1.14051 0.884323
rclavicle 8.8658e-014 -1.82882e-014
rhumerus -3.3362 18.4917 -108.371
rradius 63.4328
rwrist 56.786
rhand -1.77173 1.21137
rfingers 7.12502
rthumb 23.8923 -27.3224
lclavicle 8.8658e-014 -1.82882e-014
lhumerus -6.94015 -28.5424 101.267
lradius 66.3458
lwrist 55.6597
lhand -10.0103 45.155
lfingers 7.12502
lthumb 15.9737 -285.484
rfemur -18.3644 2.34103 18.958
rtibia 60.439
rfoot -6.31625 -11.2319
rtoes 23.4357
lfemur -25.828 -9.72521 -18.8361
ltibia 32.7029
lfoot -20.597 1.36453
ltoes -20.9681
1298
root 7.16176 16.9462 7.75793 194.438 -54.0311 174.349
lowerback -5.26442 3.06409 -2.15717
upperback -0.6996 4.20492 -3.80554
thorax 2.35769 2.05096 -2.40884
lowerneck -9.2653 2.28002 1.20144
upperneck 27.3638 0.907962 3.75376
head 10.2278 0.566913 1.15396
rclavicle 1.02076e-013 -4.77083e-014
rhumerus -3.12776 17.9504 -109.307
rradius 63.5599
rwrist 58.0799
rhand -1.16254 1.18097
rfingers 7.12502
rthumb 24.4764 -27.2751
lclavicle 1.02076e-013 -4.77083e-014
lhumerus -7.01048 -28.787 100.554
lradius 67.1865
lwrist 56.2299
lhand -10.52 44.9173
lfingers 7.12502
lthumb 15.4828 -285.683
rfemur -16.1525 2.51265 20.156
rtibia 55.5344
rfoot -9.28015 -11.5412
rtoes 19.3706
lfemur -27.8213 -10.357 -17.4712
ltibia 33.1579
lfoot -20.3341 0.711971
ltoes -20.5652
1299
root 7.29104 16.9444 7.71768 194.347 -55.9241 175.029
lowerback -5.34931 3.44935 -1.96462
upperback -0.987875 4.70154 -3.61168
thorax 2.12092 2.30392 -2.28391
lowerneck -9.35142 1.53825 0.706296
upperneck 27.6875 -0.290531 4.52298
head 10.3836 0.0512735 1.381
rclavicle -6.30644e-014 -3.97569e-015
rhumerus -2.7368 17.485 -110.163
rradius 63.5194
rwrist 59.1877
rhand -0.605287 1.52961
rfingers 7.12502
rthumb 25.0105 -26.8532
lclavicle -6.30644e-014 -3.97569e-015
lhumerus -7.00722 -29.1217 99.7515
lradius 68.1149
lwrist 56.6536
lhand -10.3406 45.0069
lfingers 7.12502
lthumb 15.6556 -285.607
rfemur -13.8272 2.30615 21.5194
rtibia 51.0731
rfoot -12.3887 -12.2728
rtoes 11.7598
lfemur -29.4192 -11.1797 -16.079
ltibia 33.8647
lfoot -19.9516 0.0565037
ltoes -19.4656
